<svg width="20" height="20" viewBox="0 0 20 20" fill="none" xmlns="http://www.w3.org/2000/svg">
<path d="M7.0466 17.5438H12.706C14.0691 17.5397 15.3753 16.9769 16.3391 15.9783C17.303 14.9798 17.8462 13.6266 17.8503 12.2145H1.90234C1.90637 13.6266 2.44963 14.9798 3.41349 15.9783C4.37735 16.9769 5.6835 17.5397 7.0466 17.5438Z" fill="#1E2832"/>
<path d="M1.13961 10.0736H18.616C18.825 10.0736 19.0254 10.1596 19.1732 10.3127C19.321 10.4658 19.404 10.6734 19.404 10.89C19.404 11.1065 19.321 11.3142 19.1732 11.4673C19.0254 11.6204 18.825 11.7064 18.616 11.7064H1.13961C0.930607 11.7064 0.730164 11.6204 0.582376 11.4673C0.434589 11.3142 0.351563 11.1065 0.351562 10.89V10.89C0.351562 10.6734 0.434589 10.4658 0.582376 10.3127C0.730164 10.1596 0.930607 10.0736 1.13961 10.0736Z" fill="#1E2832"/>
<path d="M6.6174 15.9753H6.61644C6.18754 15.9753 5.83984 16.3355 5.83984 16.7798V18.3079C5.83984 18.7522 6.18754 19.1124 6.61644 19.1124H6.6174C7.0463 19.1124 7.394 18.7522 7.394 18.3079V16.7798C7.394 16.3355 7.0463 15.9753 6.6174 15.9753Z" fill="#1E2832"/>
<path d="M13.1385 19.1124H13.1394C13.5683 19.1124 13.916 18.7522 13.916 18.3079V16.7798C13.916 16.3355 13.5683 15.9753 13.1394 15.9753H13.1385C12.7096 15.9753 12.3619 16.3355 12.3619 16.7798V18.3079C12.3619 18.7522 12.7096 19.1124 13.1385 19.1124Z" fill="#1E2832"/>
<path d="M15.3912 4.72041C15.4368 4.72033 15.4815 4.70742 15.5205 4.683C15.5595 4.65859 15.5914 4.6236 15.6127 4.58184C15.634 4.54007 15.6439 4.49308 15.6413 4.44592C15.6388 4.39876 15.6239 4.35321 15.5983 4.31417C15.2617 3.80616 14.8108 3.39071 14.2845 3.10365C13.7582 2.81659 13.1725 2.66658 12.5777 2.66658C11.983 2.66658 11.3972 2.81659 10.8709 3.10365C10.3446 3.39071 9.89372 3.80616 9.55716 4.31417C9.5315 4.35321 9.51661 4.39876 9.51406 4.44592C9.51151 4.49308 9.52143 4.54007 9.54271 4.58184C9.564 4.6236 9.59587 4.65859 9.63489 4.683C9.67392 4.70742 9.71863 4.72033 9.76422 4.72041H15.3912Z" fill="#1E2832"/>
<path d="M18.2837 10.8148H16.9843V3.35742C16.9843 2.84154 16.7865 2.34676 16.4344 1.98197C16.0822 1.61719 15.6047 1.41225 15.1067 1.41225C14.6087 1.41225 14.1312 1.61719 13.779 1.98197C13.4269 2.34676 13.2291 2.84154 13.2291 3.35742H11.9297C11.9297 2.9252 12.0119 2.49719 12.1715 2.09786C12.3312 1.69854 12.5652 1.33571 12.8602 1.03008C13.1552 0.724447 13.5054 0.481998 13.8909 0.316592C14.2764 0.151186 14.6895 0.0660553 15.1067 0.0660553C15.5239 0.0660553 15.9371 0.151186 16.3225 0.316592C16.708 0.481998 17.0582 0.724447 17.3532 1.03008C17.6482 1.33571 17.8822 1.69854 18.0418 2.09786C18.2015 2.49719 18.2837 2.9252 18.2837 3.35742V10.8148Z" fill="#1E2832"/>
<path d="M11.2708 5.11778H10.6211V6.28508H11.2708V5.11778Z" fill="#1E2832"/>
<path d="M11.2708 6.81383H10.6211V7.98112H11.2708V6.81383Z" fill="#1E2832"/>
<path d="M11.2708 8.51091H10.6211V9.6782H11.2708V8.51091Z" fill="#1E2832"/>
<path d="M12.9466 5.11778H12.2969V6.28508H12.9466V5.11778Z" fill="#1E2832"/>
<path d="M12.9466 6.81383H12.2969V7.98112H12.9466V6.81383Z" fill="#1E2832"/>
<path d="M12.9466 8.51091H12.2969V9.6782H12.9466V8.51091Z" fill="#1E2832"/>
<path d="M14.6204 5.11778H13.9707V6.28508H14.6204V5.11778Z" fill="#1E2832"/>
<path d="M14.6204 6.81383H13.9707V7.98112H14.6204V6.81383Z" fill="#1E2832"/>
<path d="M14.6204 8.51091H13.9707V9.6782H14.6204V8.51091Z" fill="#1E2832"/>
</svg>
