<svg width="27" height="19" viewBox="0 0 27 19" fill="none" xmlns="http://www.w3.org/2000/svg">
<g clip-path="url(#clip0_2325_1181)">
<path d="M2.57928 1.18711C2.57928 0.886702 2.46408 0.598595 2.25904 0.386173C2.05399 0.17375 1.77589 0.0544128 1.48592 0.0544128C1.19595 0.0544128 0.917861 0.17375 0.712819 0.386173C0.507776 0.598595 0.392578 0.886702 0.392578 1.18711V18.1747H2.57928V13.6448H8.04504V9.11503H2.57928V1.18711ZM21.71 4.58423H9.13838V14.7815H23.3538V6.2813C23.3535 6.05793 23.3108 5.8368 23.2279 5.63056C23.1451 5.42433 23.0239 5.23704 22.8711 5.07942C22.7183 4.92179 22.537 4.79692 22.3376 4.71195C22.1382 4.62698 21.9246 4.58358 21.709 4.58423H21.71ZM25.8124 9.11404H24.4462V18.1747H26.6291V9.96406C26.6291 9.85248 26.6078 9.74199 26.5666 9.63892C26.5253 9.53585 26.4649 9.4422 26.3887 9.36335C26.3125 9.2845 26.222 9.22198 26.1225 9.17937C26.0229 9.13676 25.9163 9.1149 25.8086 9.11503L25.8124 9.11404ZM5.86217 3.45153C5.42969 3.45153 5.00692 3.58439 4.64732 3.83332C4.28772 4.08224 4.00743 4.43605 3.84193 4.85C3.67642 5.26394 3.63313 5.71944 3.7175 6.15888C3.80187 6.59833 4.01012 7.00198 4.31594 7.31881C4.62175 7.63563 5.0114 7.85139 5.43557 7.9388C5.85975 8.02621 6.29941 7.98134 6.69898 7.80988C7.09854 7.63842 7.44007 7.34806 7.68034 6.97551C7.92062 6.60297 8.04886 6.16498 8.04886 5.71693C8.04886 5.4191 7.99217 5.12419 7.88204 4.84908C7.77191 4.57397 7.61051 4.32406 7.40705 4.11365C7.20359 3.90323 6.96209 3.73645 6.69634 3.62283C6.4306 3.50922 6.14584 3.45101 5.85836 3.45153H5.86217Z" fill="#1E2832"/>
</g>
<defs>
<clipPath id="clip0_2325_1181">
<rect width="26.2365" height="18.1202" fill="white" transform="translate(0.392578 0.0544128)"/>
</clipPath>
</defs>
</svg>
