<svg width="14" height="14" viewBox="0 0 14 14" fill="none" xmlns="http://www.w3.org/2000/svg">
<path d="M9.81212 0H4.16338C1.86768 0 0 1.86768 0 4.16338V9.81212C0 12.1078 1.86768 13.9755 4.16338 13.9755H9.81212C12.1078 13.9755 13.9755 12.1078 13.9755 9.81212V4.16338C13.9755 1.86768 12.1078 0 9.81212 0ZM12.5696 9.81212C12.5696 11.335 11.335 12.5696 9.81212 12.5696H4.16338C2.6405 12.5696 1.40593 11.335 1.40593 9.81212V4.16338C1.40593 2.64047 2.6405 1.40593 4.16338 1.40593H9.81212C11.335 1.40593 12.5696 2.64047 12.5696 4.16338V9.81212Z" fill="black"/>
<path d="M6.98761 3.37317C4.99454 3.37317 3.37305 4.99466 3.37305 6.98771C3.37305 8.98075 4.99454 10.6023 6.98761 10.6023C8.98068 10.6023 10.6022 8.98078 10.6022 6.98771C10.6022 4.99463 8.98068 3.37317 6.98761 3.37317ZM6.98761 9.19636C5.76781 9.19636 4.77898 8.20753 4.77898 6.98773C4.77898 5.76793 5.76783 4.7791 6.98761 4.7791C8.20741 4.7791 9.19623 5.76793 9.19623 6.98773C9.19623 8.20751 8.20738 9.19636 6.98761 9.19636Z" fill="black"/>
<path d="M10.6083 4.2665C11.0866 4.2665 11.4744 3.87873 11.4744 3.4004C11.4744 2.92207 11.0866 2.5343 10.6083 2.5343C10.13 2.5343 9.74219 2.92207 9.74219 3.4004C9.74219 3.87873 10.13 4.2665 10.6083 4.2665Z" fill="black"/>
</svg>
