<svg width="7" height="14" viewBox="0 0 7 14" fill="none" xmlns="http://www.w3.org/2000/svg">
<path d="M0.252769 7.4564H1.75826V13.7742C1.75826 13.8989 1.85741 14 1.97978 14H4.53238C4.65475 14 4.7539 13.8989 4.7539 13.7742V7.48616H6.48459C6.59712 7.48616 6.69179 7.40008 6.70464 7.28614L6.9675 4.96025C6.97472 4.89625 6.95483 4.83217 6.91283 4.78416C6.87078 4.73611 6.81062 4.70861 6.74748 4.70861H4.75399V3.25062C4.75399 2.81111 4.98614 2.58824 5.44407 2.58824C5.50933 2.58824 6.74748 2.58824 6.74748 2.58824C6.86985 2.58824 6.969 2.48712 6.969 2.36243V0.227477C6.969 0.102742 6.86985 0.00167097 6.74748 0.00167097H4.95119C4.93852 0.00103871 4.91038 0 4.86891 0C4.55724 0 3.47388 0.0623677 2.6181 0.864884C1.66991 1.7542 1.80172 2.81901 1.83322 3.00363V4.70856H0.252769C0.130402 4.70856 0.03125 4.80963 0.03125 4.93437V7.23055C0.03125 7.35528 0.130402 7.4564 0.252769 7.4564Z" fill="black"/>
</svg>
