<svg width="15" height="20" viewBox="0 0 15 20" fill="none" xmlns="http://www.w3.org/2000/svg">
<path d="M10.3471 5.85951C10.1705 5.85951 9.99561 5.82418 9.83243 5.75554C9.66924 5.6869 9.52096 5.58629 9.39607 5.45946C9.27117 5.33263 9.17209 5.18206 9.1045 5.01635C9.03691 4.85064 9.00212 4.67303 9.00212 4.49366V0H2.11362C1.55306 0 1.01545 0.226132 0.619064 0.628649C0.222683 1.03117 0 1.5771 0 2.14634V17.8537C0 18.4229 0.222683 18.9688 0.619064 19.3714C1.01545 19.7739 1.55306 20 2.11362 20H12.8864C13.4469 20 13.9846 19.7739 14.3809 19.3714C14.7773 18.9688 15 18.4229 15 17.8537V5.85951H10.3471ZM3.1541 14.0624H5.95177C6.10465 14.0624 6.25127 14.1241 6.35938 14.2339C6.46748 14.3437 6.52821 14.4926 6.52821 14.6478C6.52821 14.8031 6.46748 14.9519 6.35938 15.0617C6.25127 15.1715 6.10465 15.2332 5.95177 15.2332H3.1541C3.00122 15.2332 2.8546 15.1715 2.74649 15.0617C2.63839 14.9519 2.57766 14.8031 2.57766 14.6478C2.57766 14.4926 2.63839 14.3437 2.74649 14.2339C2.8546 14.1241 3.00122 14.0624 3.1541 14.0624ZM2.57766 11.5259C2.57766 11.3706 2.63839 11.2217 2.74649 11.1119C2.8546 11.0022 3.00122 10.9405 3.1541 10.9405H11.6163C11.7692 10.9405 11.9158 11.0022 12.0239 11.1119C12.132 11.2217 12.1927 11.3706 12.1927 11.5259C12.1927 11.6811 12.132 11.83 12.0239 11.9398C11.9158 12.0495 11.7692 12.1112 11.6163 12.1112H3.1541C3.07816 12.1112 3.00297 12.096 2.93284 12.0664C2.86272 12.0368 2.79904 11.9934 2.74548 11.9387C2.69191 11.8841 2.64951 11.8192 2.62071 11.7478C2.59191 11.6765 2.57728 11.6 2.57766 11.5229V11.5259ZM11.6172 7.81854C11.7701 7.81854 11.9167 7.88021 12.0249 7.98999C12.133 8.09976 12.1937 8.24865 12.1937 8.4039C12.1937 8.55915 12.133 8.70804 12.0249 8.81782C11.9167 8.9276 11.7701 8.98927 11.6172 8.98927H3.1541C3.00122 8.98927 2.8546 8.9276 2.74649 8.81782C2.63839 8.70804 2.57766 8.55915 2.57766 8.4039C2.57766 8.24865 2.63839 8.09976 2.74649 7.98999C2.8546 7.88021 3.00122 7.81854 3.1541 7.81854H11.6172Z" fill="black"/>
</svg>
