<svg width="32" height="32" viewBox="0 0 32 32" fill="none" xmlns="http://www.w3.org/2000/svg">
<circle cx="16" cy="16" r="16" fill="#F6F6F6"/>
<path d="M12.2528 16.4564H13.7583V22.7742C13.7583 22.8989 13.8574 23 13.9798 23H16.5324C16.6548 23 16.7539 22.8989 16.7539 22.7742V16.4862H18.4846C18.5971 16.4862 18.6918 16.4001 18.7046 16.2861L18.9675 13.9602C18.9747 13.8963 18.9548 13.8322 18.9128 13.7842C18.8708 13.7361 18.8106 13.7086 18.7475 13.7086H16.754V12.2506C16.754 11.8111 16.9861 11.5882 17.4441 11.5882C17.5093 11.5882 18.7475 11.5882 18.7475 11.5882C18.8699 11.5882 18.969 11.4871 18.969 11.3624V9.22748C18.969 9.10274 18.8699 9.00167 18.7475 9.00167H16.9512C16.9385 9.00104 16.9104 9 16.8689 9C16.5572 9 15.4739 9.06237 14.6181 9.86488C13.6699 10.7542 13.8017 11.819 13.8332 12.0036V13.7086H12.2528C12.1304 13.7086 12.0312 13.8096 12.0312 13.9344V16.2305C12.0312 16.3553 12.1304 16.4564 12.2528 16.4564Z" fill="black"/>
</svg>
