<svg width="14" height="14" viewBox="0 0 14 14" fill="none" xmlns="http://www.w3.org/2000/svg">
<path d="M9.81212 0H4.16338C1.86768 0 0 1.86768 0 4.16338V9.81212C0 12.1078 1.86768 13.9755 4.16338 13.9755H9.81212C12.1078 13.9755 13.9755 12.1078 13.9755 9.81212V4.16338C13.9755 1.86768 12.1078 0 9.81212 0ZM12.5696 9.81212C12.5696 11.335 11.335 12.5696 9.81212 12.5696H4.16338C2.6405 12.5696 1.40593 11.335 1.40593 9.81212V4.16338C1.40593 2.64047 2.6405 1.40593 4.16338 1.40593H9.81212C11.335 1.40593 12.5696 2.64047 12.5696 4.16338V9.81212Z" fill="black"/>
<path d="M6.98761 3.37329C4.99454 3.37329 3.37305 4.99478 3.37305 6.98783C3.37305 8.98087 4.99454 10.6024 6.98761 10.6024C8.98068 10.6024 10.6022 8.9809 10.6022 6.98783C10.6022 4.99475 8.98068 3.37329 6.98761 3.37329ZM6.98761 9.19648C5.76781 9.19648 4.77898 8.20765 4.77898 6.98785C4.77898 5.76805 5.76783 4.77923 6.98761 4.77923C8.20741 4.77923 9.19623 5.76805 9.19623 6.98785C9.19623 8.20763 8.20738 9.19648 6.98761 9.19648Z" fill="black"/>
<path d="M10.6093 4.26638C11.0876 4.26638 11.4754 3.87861 11.4754 3.40028C11.4754 2.92195 11.0876 2.53418 10.6093 2.53418C10.1309 2.53418 9.74316 2.92195 9.74316 3.40028C9.74316 3.87861 10.1309 4.26638 10.6093 4.26638Z" fill="black"/>
</svg>
