<svg width="32" height="32" viewBox="0 0 32 32" fill="none" xmlns="http://www.w3.org/2000/svg">
<circle cx="16" cy="16" r="16" fill="#F6F6F6"/>
<path d="M18.8121 9H13.1634C10.8677 9 9 10.8677 9 13.1634V18.8121C9 21.1078 10.8677 22.9755 13.1634 22.9755H18.8121C21.1078 22.9755 22.9755 21.1078 22.9755 18.8121V13.1634C22.9755 10.8677 21.1078 9 18.8121 9ZM21.5696 18.8121C21.5696 20.335 20.335 21.5696 18.8121 21.5696H13.1634C11.6405 21.5696 10.4059 20.335 10.4059 18.8121V13.1634C10.4059 11.6405 11.6405 10.4059 13.1634 10.4059H18.8121C20.335 10.4059 21.5696 11.6405 21.5696 13.1634V18.8121Z" fill="black"/>
<path d="M15.9876 12.3732C13.9945 12.3732 12.373 13.9947 12.373 15.9877C12.373 17.9808 13.9945 19.6023 15.9876 19.6023C17.9807 19.6023 19.6022 17.9808 19.6022 15.9877C19.6022 13.9946 17.9807 12.3732 15.9876 12.3732ZM15.9876 18.1964C14.7678 18.1964 13.779 17.2075 13.779 15.9877C13.779 14.7679 14.7678 13.7791 15.9876 13.7791C17.2074 13.7791 18.1962 14.7679 18.1962 15.9877C18.1962 17.2075 17.2074 18.1964 15.9876 18.1964Z" fill="black"/>
<path d="M19.6083 13.2665C20.0866 13.2665 20.4744 12.8787 20.4744 12.4004C20.4744 11.9221 20.0866 11.5343 19.6083 11.5343C19.13 11.5343 18.7422 11.9221 18.7422 12.4004C18.7422 12.8787 19.13 13.2665 19.6083 13.2665Z" fill="black"/>
</svg>
