<svg width="22" height="20" viewBox="0 0 22 20" fill="none" xmlns="http://www.w3.org/2000/svg">
<path d="M21.9183 18.325L17.4987 8.10621C17.4171 7.9175 17.2786 7.75616 17.1008 7.64263C16.923 7.52911 16.714 7.46851 16.5001 7.46851C16.2862 7.46851 16.0771 7.52911 15.8994 7.64263C15.7216 7.75616 15.5831 7.9175 15.5015 8.10621L11.0818 18.325C11.0269 18.4503 10.9984 18.5847 10.9981 18.7206C10.9977 18.8564 11.0255 18.991 11.0798 19.1166C11.134 19.2422 11.2138 19.3563 11.3144 19.4523C11.4151 19.5484 11.5346 19.6245 11.6661 19.6764C11.7977 19.7282 11.9387 19.7547 12.081 19.7544C12.2233 19.7541 12.3642 19.7269 12.4955 19.6745C12.6268 19.622 12.7459 19.5453 12.846 19.4488C12.9462 19.3523 13.0254 19.2378 13.079 19.112L13.9792 17.0312H19.021L19.9211 19.112C20.0027 19.3008 20.1412 19.4622 20.319 19.5758C20.4969 19.6894 20.706 19.75 20.92 19.75C21.0975 19.7499 21.2723 19.708 21.4288 19.6281C21.5854 19.5482 21.7189 19.4327 21.8175 19.2918C21.9162 19.1509 21.9769 18.989 21.9944 18.8204C22.0119 18.6517 21.9856 18.4816 21.9178 18.325H21.9183ZM14.8714 14.9687L16.5003 11.2023L18.1292 14.9687H14.8714Z" fill="#F6F6F6"/>
<path d="M11.5814 14.0744C11.7493 13.8531 11.8183 13.5772 11.7732 13.3074C11.7282 13.0376 11.5729 12.7959 11.3413 12.6353C11.3315 12.6283 10.6047 12.1136 9.54938 11.0073C11.4965 8.49109 12.5994 5.62844 13.0492 4.28125H14.6339C14.9205 4.28125 15.1952 4.1726 15.3979 3.9792C15.6005 3.78581 15.7143 3.5235 15.7143 3.25C15.7143 2.9765 15.6005 2.71419 15.3979 2.5208C15.1952 2.3274 14.9205 2.21875 14.6339 2.21875H8.9375V1.28125C8.9375 1.00775 8.82368 0.745443 8.62107 0.552046C8.41846 0.358649 8.14367 0.25 7.85714 0.25C7.57061 0.25 7.29582 0.358649 7.09321 0.552046C6.89061 0.745443 6.77679 1.00775 6.77679 1.28125V2.21875H1.08036C0.793829 2.21875 0.519035 2.3274 0.316429 2.5208C0.113823 2.71419 0 2.9765 0 3.25C0 3.5235 0.113823 3.78581 0.316429 3.9792C0.519035 4.1726 0.793829 4.28125 1.08036 4.28125H10.7667C10.2992 5.54453 9.43839 7.53906 8.12527 9.36063C6.58281 7.40688 6.00973 6.14266 6.00531 6.13234C5.89239 5.88324 5.68114 5.68668 5.41738 5.58529C5.15362 5.4839 4.85862 5.48585 4.59636 5.59072C4.3341 5.6956 4.12573 5.89494 4.01643 6.14551C3.90714 6.39608 3.90574 6.67767 4.01254 6.92922C4.04103 6.99391 4.72705 8.53375 6.60835 10.8634C6.65353 10.9192 6.69821 10.9736 6.7429 11.028C4.81594 13.1069 2.92531 14.3964 2.1342 14.8127C1.88264 14.9436 1.69589 15.1646 1.61503 15.427C1.53417 15.6894 1.56583 15.9718 1.70304 16.2119C1.84024 16.452 2.07176 16.6303 2.34666 16.7074C2.62156 16.7846 2.91732 16.7544 3.16888 16.6234C3.27496 16.5681 5.55549 15.363 8.15964 12.6114C9.26554 13.7402 10.0257 14.2727 10.0714 14.3036C10.1863 14.3833 10.3165 14.4405 10.4546 14.4721C10.5928 14.5037 10.736 14.509 10.8763 14.4876C11.0166 14.4663 11.151 14.4188 11.272 14.3478C11.393 14.2768 11.4982 14.1837 11.5814 14.0739V14.0744Z" fill="#F6F6F6"/>
</svg>
