<svg width="15" height="20" viewBox="0 0 15 20" fill="none" xmlns="http://www.w3.org/2000/svg">
<path d="M7.28721 0C5.34821 0.00970578 3.49205 0.826526 2.12592 2.27127C0.75979 3.71602 -0.00474988 5.67071 2.22062e-05 7.70654C2.22062e-05 13.7449 6.60277 19.9805 6.88316 20.2422C6.99456 20.3459 7.13831 20.4032 7.28721 20.4032C7.43612 20.4032 7.57987 20.3459 7.69127 20.2422C7.97449 19.9795 14.5744 13.7449 14.5744 7.70555C14.5789 5.66989 13.8143 3.71545 12.4482 2.27092C11.0821 0.82639 9.22605 0.00970559 7.28721 0V0ZM7.28721 11.9023C6.48657 11.9023 5.70391 11.653 5.0382 11.186C4.37249 10.7189 3.85363 10.0551 3.54723 9.27852C3.24084 8.50189 3.16068 7.64731 3.31687 6.82284C3.47307 5.99837 3.85862 5.24105 4.42476 4.64665C4.9909 4.05224 5.71221 3.64744 6.49747 3.48345C7.28272 3.31945 8.09667 3.40362 8.83637 3.72531C9.57606 4.047 10.2083 4.59176 10.6531 5.29071C11.0979 5.98966 11.3353 6.8114 11.3353 7.65202C11.3341 8.77885 10.9072 9.85916 10.1483 10.6559C9.38939 11.4527 8.36046 11.901 7.28721 11.9023Z" fill="black"/>
</svg>
