<svg width="11" height="15" viewBox="0 0 11 15" fill="none" xmlns="http://www.w3.org/2000/svg">
<path d="M0.457894 5.41875C0.445024 5.26996 0.438477 5.11959 0.438477 4.96719C0.438702 2.22395 2.58182 0 5.22526 0C7.86871 0 10.0118 2.22395 10.0118 4.96719C10.0118 5.11936 10.0053 5.26996 9.99241 5.41875H10.0118C10.0118 8.13332 5.22526 14.45 5.22526 14.45C5.22526 14.45 0.438702 8.14822 0.438702 5.41875H0.457894ZM5.22526 6.32188C6.25234 6.35077 7.10895 5.5427 7.13989 4.51562C7.10895 3.48855 6.25234 2.68047 5.22526 2.70937C4.19818 2.68047 3.34157 3.48855 3.31064 4.51562C3.34157 5.5427 4.19818 6.35077 5.22526 6.32188Z" fill="#F6F6F6"/>
</svg>
