<svg width="15" height="15" viewBox="0 0 15 15" fill="none" xmlns="http://www.w3.org/2000/svg">
<path d="M14.2418 11.8614V11.8583C14.2418 11.8583 11.5124 9.13208 11.5107 9.13075C11.2943 8.91424 10.9482 8.91894 10.7353 9.1322L9.47904 10.3937C8.99063 10.8822 8.36085 10.4487 7.15198 9.46298C6.35217 8.81081 5.43195 7.93381 4.63407 6.94507C4.07413 6.25135 3.57898 5.52283 4.09051 5.01142C4.09183 5.0101 5.35199 3.75319 5.35175 3.75186L5.35272 3.74921C5.57886 3.52307 5.55694 3.17663 5.35043 2.96988V2.96674C5.35043 2.96674 2.54219 0.161999 2.54063 0.160313C2.32424 -0.0560755 1.97828 -0.0512588 1.76526 0.161758L0.499683 1.42734C-0.0217212 2.07988 -1.18049 5.18988 3.7873 10.2821C9.02061 15.6467 12.3976 14.4992 12.9789 13.8938C12.9789 13.8938 14.2432 12.6445 14.2432 12.6433L14.2443 12.6408C14.4704 12.4145 14.4481 12.0683 14.2418 11.8614Z" fill="#F6F6F6"/>
</svg>
