<svg width="32" height="32" viewBox="0 0 32 32" fill="none" xmlns="http://www.w3.org/2000/svg">
<circle cx="16" cy="16" r="16" fill="black"/>
<g clip-path="url(#clip0_1445_6283)">
<path d="M23.2417 20.8614V20.8583C23.2417 20.8583 20.5123 18.1321 20.5106 18.1308C20.2943 17.9142 19.9482 17.9189 19.7353 18.1322L18.479 19.3937C17.9906 19.8822 17.3608 19.4487 16.1519 18.463C15.3521 17.8108 14.4319 16.9338 13.634 15.9451C13.0741 15.2514 12.5789 14.5228 13.0904 14.0114C13.0918 14.0101 14.3519 12.7532 14.3517 12.7519L14.3527 12.7492C14.5788 12.5231 14.5569 12.1766 14.3504 11.9699V11.9667C14.3504 11.9667 11.5421 9.162 11.5406 9.16031C11.3242 8.94392 10.9782 8.94874 10.7652 9.16176L9.49962 10.4273C8.97822 11.0799 7.81945 14.1899 12.7872 19.2821C18.0205 24.6467 21.3975 23.4992 21.9789 22.8938C21.9789 22.8938 23.2431 21.6445 23.2431 21.6433L23.2442 21.6408C23.4704 21.4145 23.4481 21.0683 23.2417 20.8614Z" fill="#F6F6F6"/>
</g>
<defs>
<clipPath id="clip0_1445_6283">
<rect width="14.45" height="14.45" fill="white" transform="translate(9 9)"/>
</clipPath>
</defs>
</svg>
