<svg width="15" height="15" viewBox="0 0 15 15" fill="none" xmlns="http://www.w3.org/2000/svg">
<path d="M7.225 0C3.24132 0 0 3.24132 0 7.225C0 11.2087 3.24132 14.45 7.225 14.45C11.2087 14.45 14.45 11.2087 14.45 7.225C14.45 3.24132 11.2087 0 7.225 0ZM7.225 12.6438C4.23656 12.6438 1.80625 10.2134 1.80625 7.225C1.80625 4.23656 4.23656 1.80625 7.225 1.80625C10.2134 1.80625 12.6438 4.23656 12.6438 7.225C12.6438 10.2134 10.2134 12.6438 7.225 12.6438Z" fill="#F6F6F6"/>
<path d="M6.32266 6.32185H3.61328V8.1281H7.22578C7.72431 8.1281 8.12891 7.7235 8.12891 7.22498V2.70935H6.32266V6.32185Z" fill="#F6F6F6"/>
</svg>
