<svg width="14" height="13" viewBox="0 0 14 13" fill="none" xmlns="http://www.w3.org/2000/svg">
<path d="M7.96509 9.87242C8.52043 9.87242 9.01343 9.74209 9.44409 9.48142C9.87476 9.22076 10.2148 8.84676 10.4641 8.35942H13.6601C13.3201 9.65142 12.6458 10.6714 11.6371 11.4194C10.6284 12.1561 9.41576 12.5244 7.99909 12.5244C6.59376 12.5244 5.38109 12.1561 4.36109 11.4194C3.35243 10.6828 2.66109 9.68542 2.28709 8.42742H0.961094V6.91442H2.03209C2.02076 6.81242 2.01509 6.65942 2.01509 6.45542C2.01509 6.24009 2.02076 6.07576 2.03209 5.96242H0.961094V4.43242H2.30409C2.67809 3.18576 3.36943 2.19976 4.37809 1.47442C5.39809 0.737755 6.60509 0.369422 7.99909 0.369422C9.41576 0.369422 10.6284 0.743422 11.6371 1.49142C12.6458 2.23942 13.3201 3.25942 13.6601 4.55142H10.4641C10.2148 4.06409 9.87476 3.69576 9.44409 3.44642C9.01343 3.18576 8.52043 3.05542 7.96509 3.05542C7.42109 3.05542 6.93376 3.17442 6.50309 3.41242C6.07243 3.65042 5.72676 3.99042 5.46609 4.43242H8.30509V5.96242H4.99009C4.97876 6.06442 4.97309 6.22876 4.97309 6.45542C4.97309 6.65942 4.97876 6.81242 4.99009 6.91442H8.30509V8.42742H5.43209C5.69276 8.89209 6.03843 9.24909 6.46909 9.49842C6.91109 9.74776 7.40976 9.87242 7.96509 9.87242Z" fill="#1E2832"/>
</svg>
