<svg width="216" height="235" viewBox="0 0 216 235" fill="none" xmlns="http://www.w3.org/2000/svg">
<path d="M33.9694 33.7757H73.5254L108.917 165.65L141.571 33.7757H182.031V42.2546H172.17C168.692 42.2546 166.336 42.9485 165.13 44.3741C163.924 45.7996 163.323 48.306 163.323 51.8516V184.023C163.323 186.683 164.062 188.687 165.487 190.153C166.938 191.579 169.431 192.27 172.965 192.27H182.032V200.75H127.764V192.27H137.901C140.777 192.27 142.913 191.5 144.31 189.959C145.739 188.324 146.485 186.198 146.392 184.023V42.2546L107.135 200.75H101.684L59.4727 42.9094V164.303C59.4727 171.504 60.1212 176.895 61.4183 180.478C62.6774 184.063 64.5133 186.798 66.8972 188.725C69.281 190.652 73.2246 191.848 78.7299 192.27V200.75H33.9688V192.27C41.2841 191.617 46.2693 189.381 48.8984 185.604C51.5016 181.864 52.8073 175.213 52.8155 165.65V50.5017C52.8155 47.6109 52.214 45.5299 50.9808 44.2184C49.7476 42.907 47.4464 42.2534 44.0784 42.2534H33.9712L33.9694 33.7757Z" fill="#F3F5F8" fill-opacity="0.1"/>
<path d="M216 235H0V0H216V235ZM11.7095 223.219H204.29V11.7814H11.7095V223.219Z" fill="#F3F5F8" fill-opacity="0.1"/>
</svg>
