<svg width="365" height="380" viewBox="0 0 365 380" fill="none" xmlns="http://www.w3.org/2000/svg">
<path d="M70.7686 -36.2148H153.178L226.911 236.249L294.938 -36.2148H379.23V-18.6871H358.684C351.439 -18.6871 346.531 -17.2533 344.018 -14.3087C341.506 -11.3641 340.253 -6.18492 340.253 1.14042V274.21C340.117 276.514 340.446 278.823 341.22 280.998C341.995 283.173 343.199 285.171 344.762 286.873C347.795 289.815 352.978 291.249 360.341 291.249H379.237V308.767H266.175V291.249H287.293C293.289 291.249 297.74 289.657 300.646 286.475C303.622 283.097 305.176 278.703 304.985 274.21V-18.6871L223.202 308.767H211.846L123.898 -17.3464V233.466C123.898 248.343 125.25 259.482 127.953 266.885C130.074 273.523 134.031 279.429 139.367 283.924C144.329 287.906 152.55 290.376 164.02 291.249V308.767H70.7686V291.249C86.0088 289.899 96.3945 285.278 101.872 277.476C107.295 269.748 110.017 256.005 110.037 236.247V-1.64591C110.037 -7.61884 108.784 -11.9181 106.216 -14.6276C103.647 -17.3371 98.8534 -18.6871 91.8339 -18.6871H70.7755V-36.2148H70.7686Z" fill="#1E2832" fill-opacity="0.03"/>
<path d="M450 379.534H0V-106H450V379.534ZM24.3943 355.194H425.603V-81.6497H24.3943V355.194Z" fill="#1E2832" fill-opacity="0.03"/>
</svg>
