<svg width="262" height="285" viewBox="0 0 262 285" fill="none" xmlns="http://www.w3.org/2000/svg">
<path d="M41.2036 40.9621H89.1835L132.112 200.894L171.721 40.9621H220.796V51.245H208.836C204.617 51.245 201.76 52.0865 200.297 53.8154C198.834 55.5442 198.104 58.5838 198.104 62.8838V223.177C198.104 226.402 199.001 228.833 200.73 230.611C202.49 232.34 205.514 233.179 209.8 233.179H220.798V243.462H154.973V233.179H167.268C170.757 233.179 173.348 232.244 175.043 230.376C176.775 228.393 177.68 225.814 177.569 223.177V51.245L129.95 243.462H123.339L72.1382 52.0391V199.261C72.1382 207.994 72.9248 214.533 74.4981 218.878C76.0254 223.225 78.2523 226.542 81.1438 228.88C84.0352 231.217 88.8187 232.667 95.4965 233.179V243.462H41.2028V233.179C50.0761 232.387 56.1229 229.674 59.3119 225.095C62.4695 220.559 64.0533 212.492 64.0633 200.894V61.2467C64.0633 57.7408 63.3337 55.2171 61.8379 53.6266C60.342 52.0361 57.5507 51.2435 53.4654 51.2435H41.2058L41.2036 40.9621Z" fill="#F3F5F8" fill-opacity="0.1"/>
<path d="M262 285H0V0H262V285ZM14.2032 270.712H247.797V14.2881H14.2032V270.712Z" fill="#F3F5F8" fill-opacity="0.1"/>
</svg>
