<svg width="331" height="384" viewBox="0 0 331 384" fill="none" xmlns="http://www.w3.org/2000/svg">
<path d="M-48.2314 -32.2144H34.1775L107.911 240.25L175.938 -32.2144H260.23V-14.6866H239.684C232.439 -14.6866 227.531 -13.2528 225.018 -10.3082C222.506 -7.36366 221.253 -2.18443 221.253 5.14091V278.21C221.117 280.515 221.446 282.823 222.22 284.998C222.995 287.174 224.199 289.171 225.762 290.873C228.795 293.815 233.978 295.249 241.341 295.249H260.237V312.768H147.175V295.249H168.293C174.289 295.249 178.74 293.658 181.646 290.475C184.622 287.097 186.176 282.704 185.985 278.21V-14.6866L104.202 312.768H92.8456L4.89846 -13.3459V237.466C4.89846 252.343 6.24988 263.483 8.95284 270.885C11.0744 277.524 15.0309 283.43 20.3673 287.924C25.3292 291.907 33.55 294.376 45.0205 295.249V312.768H-48.2314V295.249C-32.9912 293.899 -22.6055 289.279 -17.128 281.476C-11.705 273.748 -8.98338 260.005 -8.96316 240.248V2.35458C-8.96316 -3.61835 -10.2159 -7.91764 -12.7843 -10.6271C-15.3527 -13.3366 -20.1466 -14.6866 -27.1661 -14.6866H-48.2245V-32.2144H-48.2314Z" fill="#1E2832" fill-opacity="0.03"/>
<path d="M331 383.534H-119V-102H331V383.534ZM-94.6057 359.194H306.603V-77.6497H-94.6057V359.194Z" fill="#1E2832" fill-opacity="0.03"/>
</svg>
