<svg width="215" height="49" viewBox="0 0 215 49" fill="none" xmlns="http://www.w3.org/2000/svg">
<g clip-path="url(#clip0_402_1276)">
<path d="M7.14648 7.04211H15.4681L22.9136 34.5395L29.7829 7.04211H38.2945V8.81103H36.2199C35.4883 8.81103 34.9926 8.95574 34.7389 9.25291C34.4852 9.55008 34.3587 10.0728 34.3587 10.8121V38.3705C34.345 38.6031 34.3782 38.8361 34.4564 39.0556C34.5346 39.2751 34.6562 39.4767 34.8141 39.6485C35.1203 39.9454 35.6437 40.0901 36.3872 40.0901H38.2952V41.8581H26.8784V40.0901H29.0109C29.6163 40.0901 30.0658 39.9295 30.3593 39.6083C30.6598 39.2674 30.8167 38.824 30.7975 38.3705V8.81103L22.539 41.8581H21.3923L12.5115 8.94634V34.2586C12.5115 35.76 12.6479 36.8842 12.9209 37.6313C13.1351 38.3012 13.5346 38.8973 14.0735 39.3508C14.5746 39.7528 15.4047 40.002 16.563 40.0901V41.8581H7.14648V40.0901C8.68543 39.9539 9.73417 39.4876 10.2873 38.7001C10.8349 37.9202 11.1097 36.5333 11.1118 34.5393V10.5309C11.1118 9.92806 10.9853 9.49417 10.7259 9.22072C10.4665 8.94728 9.98246 8.81103 9.27364 8.81103H7.14719V7.04211H7.14648Z" fill="#F6F6F6"/>
<path d="M45.4405 48.9997H0V-0.000976562H45.4405V48.9997ZM2.46331 46.5432H42.977V2.45648H2.46331V46.5432Z" fill="#F6F6F6"/>
<path d="M60.0693 3.16931H69.8924L78.7025 26.4025L86.806 3.16931H96.8646V4.67277H94.4147C93.5667 4.67277 92.9778 4.79023 92.6715 5.02515C92.3653 5.26007 92.224 5.7299 92.224 6.36417V29.6444C92.2171 29.8552 92.263 30.0644 92.3576 30.2531C92.4522 30.4418 92.5925 30.604 92.7658 30.725C93.1191 30.9834 93.7316 31.1009 94.6267 31.1009H96.8646V32.6043H83.3903V31.1009H85.9108C86.6175 31.1009 87.1593 30.9834 87.4891 30.7015C87.6547 30.5801 87.7883 30.4206 87.8786 30.2365C87.9688 30.0524 88.013 29.8492 88.0074 29.6444V4.67277L78.255 32.6043H76.8887L66.406 4.76674V26.1676C66.406 27.4362 66.5709 28.3993 66.8772 29.0336C67.1835 29.6394 67.6577 30.1449 68.2434 30.4901C68.8324 30.819 69.8217 31.0304 71.188 31.1009V32.6043H60.0693V31.1009C61.8832 30.9834 63.1081 30.6075 63.7677 29.9263C64.4273 29.245 64.7571 28.0939 64.7571 26.4025V6.10576C64.772 5.89766 64.737 5.689 64.6551 5.49702C64.5732 5.30505 64.4466 5.13525 64.2859 5.00166C63.9797 4.76674 63.4144 4.67277 62.5663 4.67277H60.0693V3.16931Z" fill="#F6F6F6"/>
<path d="M160.82 3.16931H174.318V4.67277H171.444C170.832 4.67277 170.361 4.81372 170.031 5.14261C169.861 5.29542 169.728 5.48483 169.642 5.69648C169.557 5.90813 169.52 6.13647 169.536 6.36417V20.0128L180.631 8.17303C181.267 7.49177 181.597 6.834 181.597 6.22322C181.597 5.9938 181.537 5.76842 181.421 5.57024C181.305 5.37207 181.138 5.20825 180.938 5.09562C180.49 4.81373 179.783 4.67277 178.77 4.67277H177.969V3.16931H190.077V4.67277H189.135C188.206 4.70474 187.296 4.94566 186.473 5.37752C185.458 5.87675 184.541 6.55299 183.764 7.37431L176.933 14.4688L186.732 28.8692C187.274 29.6914 187.84 30.2786 188.429 30.6075C189.065 30.9493 189.779 31.1194 190.502 31.1009H191.585V32.6043H178.276V31.1009H179.783C180.89 31.1009 181.621 31.0304 181.974 30.8424C182.327 30.6545 182.539 30.4196 182.539 30.1377C182.53 29.8705 182.449 29.6107 182.304 29.386L174.153 17.4287L169.536 22.3855V29.6444C169.519 29.8266 169.544 30.0103 169.61 30.1813C169.675 30.3524 169.779 30.5062 169.913 30.631C170.357 30.9527 170.896 31.118 171.444 31.1009H174.318V32.6043H160.82V31.1009H163.412C164.095 31.1009 164.566 30.9834 164.896 30.7015C165.05 30.5727 165.172 30.4106 165.254 30.2274C165.336 30.0441 165.374 29.8447 165.367 29.6444V6.12926C165.378 5.91775 165.334 5.70693 165.239 5.51748C165.144 5.32803 165.001 5.16646 164.825 5.04864C164.472 4.79023 163.859 4.67277 163.011 4.67277H160.82V3.16931Z" fill="#F6F6F6"/>
<path d="M209.842 5.401L211.656 2.81692H213.093L213.234 13.5526H211.915C211.098 10.2638 209.873 7.86762 208.24 6.36415C207.511 5.63642 206.644 5.06028 205.689 4.66913C204.735 4.27798 203.712 4.07959 202.681 4.08547C200.914 4.08547 199.477 4.60228 198.346 5.6594C197.811 6.14276 197.385 6.73419 197.097 7.39441C196.808 8.05462 196.664 8.76848 196.674 9.48854C196.654 10.3608 196.874 11.2218 197.31 11.9786C197.767 12.7213 198.43 13.3167 199.218 13.6935C200.066 14.1399 201.668 14.6332 204 15.1265C207.298 15.8313 209.606 16.5595 210.925 17.2878C212.145 17.9103 213.163 18.8657 213.859 20.0428C214.556 21.2198 214.903 22.5699 214.859 23.9359C214.859 26.5904 213.964 28.7986 212.174 30.537C210.384 32.2754 208.075 33.1681 205.248 33.1681C202.322 33.2163 199.486 32.1589 197.31 30.2081L195.048 32.9567H193.611V21.5632H195.048C195.614 24.7111 196.862 27.1777 198.794 29.0101C200.725 30.8424 202.916 31.7351 205.366 31.7351C207.321 31.7351 208.947 31.1478 210.195 29.9967C210.788 29.4583 211.26 28.8013 211.58 28.0687C211.901 27.336 212.063 26.5441 212.056 25.7447C212.075 24.8703 211.828 24.0107 211.349 23.2781C210.791 22.4902 210.025 21.8722 209.135 21.4928C208.122 20.9994 206.143 20.4121 203.175 19.7309C200.207 19.0496 197.687 18.0865 196.509 17.1468C194.836 15.7843 194.012 13.858 194.012 11.3914C194.012 8.92474 194.836 6.66954 196.485 5.02513C198.134 3.38072 200.254 2.55851 202.845 2.55851C204.055 2.54725 205.255 2.77065 206.379 3.21628C207.653 3.73585 208.825 4.47541 209.842 5.401Z" fill="#F6F6F6"/>
<path d="M65.6992 44.9374C65.7153 45.1706 65.675 45.4043 65.5814 45.6187C65.4872 45.7596 65.4165 45.8066 65.3223 45.8066C65.2752 45.8014 65.2298 45.7861 65.1891 45.7617C65.1485 45.7374 65.1136 45.7046 65.0868 45.6656C64.9533 45.4253 64.8654 45.1625 64.8276 44.8904C64.762 44.5409 64.6511 44.2014 64.4978 43.8803C64.4125 43.7152 64.2919 43.5709 64.1445 43.4574C63.8745 43.3176 63.5902 43.2074 63.2965 43.1286C63.7161 43.1094 64.1299 43.0221 64.5214 42.8701C64.7643 42.7482 64.9683 42.5611 65.1103 42.3298C65.2538 42.1143 65.3278 41.8602 65.3223 41.6016C65.3316 41.3862 65.2894 41.1716 65.1993 40.9756C65.1092 40.7795 64.9738 40.6076 64.8041 40.474C64.3799 40.1709 63.8645 40.0217 63.3436 40.0511H60.0928V40.38H60.7052C60.8121 40.3728 60.9186 40.3974 61.0115 40.4505C61.071 40.5145 61.1045 40.5982 61.1057 40.6854V45.6891C61.1045 45.7764 61.071 45.8601 61.0115 45.9241C60.9186 45.9772 60.8121 46.0017 60.7052 45.9945H60.0928V46.3234H63.0138V45.9945H62.4013C62.2945 46.0017 62.1879 45.9772 62.0951 45.9241C62.0605 45.8962 62.0337 45.86 62.0172 45.8189C62.0007 45.7777 61.995 45.7331 62.0009 45.6891V43.246H62.5191C62.7624 43.238 63.0043 43.2863 63.2258 43.387C63.4025 43.4658 63.5505 43.5971 63.6498 43.7628C63.7697 44.0136 63.8416 44.2845 63.8618 44.5615C63.8932 44.9652 63.9562 45.3658 64.0503 45.7596C64.1115 45.9515 64.2361 46.1171 64.4036 46.2294C64.557 46.3326 64.7369 46.3897 64.9219 46.3939C65.5814 46.3939 65.9348 45.9006 66.0055 44.9374H65.6992ZM62.7547 42.9406H62.0009V40.6854C61.998 40.6361 62.0073 40.5868 62.0278 40.5417C62.0483 40.4967 62.0795 40.4574 62.1186 40.427C62.3241 40.3629 62.5401 40.339 62.7547 40.3565C63.0965 40.3385 63.439 40.3782 63.7676 40.474C63.946 40.5616 64.0937 40.7008 64.1916 40.8734C64.2968 41.1178 64.3451 41.3828 64.3329 41.6486C64.3329 42.1184 64.1916 42.4708 63.9089 42.6587C63.5605 42.8643 63.1589 42.9624 62.7547 42.9406Z" fill="#F6F6F6"/>
<path d="M75.6162 40.0511H80.5866L80.7044 42.1654H80.4217C80.304 41.5076 80.1391 41.0378 79.8799 40.7794C79.7631 40.6464 79.6177 40.5414 79.4546 40.4723C79.2914 40.4031 79.1148 40.3716 78.9377 40.38H77.6892C77.6509 40.3768 77.6124 40.3814 77.5759 40.3935C77.5394 40.4056 77.5059 40.425 77.4772 40.4505C77.4177 40.5145 77.3841 40.5982 77.3829 40.6854V42.9171H77.9248C78.0586 42.9274 78.1929 42.905 78.3161 42.8518C78.4392 42.7986 78.5475 42.7162 78.6314 42.6117C78.842 42.3446 78.9505 42.0116 78.9377 41.6721H79.2204V44.5615H78.9377C78.9141 44.0917 78.8199 43.7393 78.6314 43.5514C78.5389 43.4433 78.423 43.3575 78.2924 43.3006C78.1619 43.2436 78.02 43.2169 77.8776 43.2225H77.3829V45.7126C77.3853 45.7927 77.4192 45.8686 77.4772 45.924C77.57 45.9772 77.6766 46.0017 77.7834 45.9945H78.7728C79.8093 45.9945 80.4217 45.3368 80.5866 43.9742H80.8929L80.7986 46.3234H75.6162V45.9945H76.0402C76.1623 46.0042 76.2846 45.9798 76.3936 45.924C76.4271 45.8903 76.4528 45.8497 76.4691 45.8051C76.4853 45.7605 76.4917 45.7129 76.4878 45.6656V40.6854C76.4915 40.6416 76.485 40.5976 76.4686 40.5568C76.4522 40.516 76.4266 40.4796 76.3936 40.4505C76.3188 40.3961 76.2266 40.371 76.1345 40.38H75.6162V40.0511Z" fill="#F6F6F6"/>
<path d="M96.4639 45.9946C96.3471 46.005 96.23 45.979 96.1287 45.9201C96.0274 45.8611 95.947 45.7722 95.8986 45.6657L93.6607 39.9103H93.378L91.2344 45.2429C91.1563 45.471 91.018 45.6739 90.8339 45.8302C90.6712 45.9506 90.4707 46.0089 90.2686 45.9946V46.3235H92.5535V45.9946H92.3415C92.1426 46.0118 91.9436 45.9622 91.7762 45.8537C91.7137 45.8177 91.6615 45.7665 91.6244 45.7049C91.5873 45.6432 91.5665 45.5731 91.5642 45.5013C91.5797 45.3321 91.6193 45.166 91.6819 45.008L91.9882 44.2562H94.4616L94.9799 45.5718C95.0035 45.624 95.0194 45.6794 95.027 45.7362C95.0244 45.7748 95.0122 45.8121 94.9917 45.8449C94.9712 45.8777 94.9428 45.9049 94.9092 45.9241C94.7263 45.9802 94.535 46.004 94.3438 45.9946H94.1554V46.3235H96.6524V45.9946H96.4639ZM92.1295 43.9273L93.2367 41.1318L94.3438 43.9273H92.1295Z" fill="#F6F6F6"/>
<path d="M105.98 40.0511H108.901V40.38H108.195C108.153 40.3749 108.11 40.3785 108.07 40.3906C108.029 40.4028 107.991 40.4232 107.959 40.4505C107.925 40.4886 107.899 40.5333 107.883 40.5818C107.867 40.6302 107.861 40.6815 107.865 40.7324V45.6656C107.862 45.715 107.871 45.7643 107.892 45.8093C107.912 45.8543 107.944 45.8937 107.983 45.924C108.106 45.9875 108.246 46.0121 108.383 45.9945H109.255C109.47 46.0044 109.685 45.9675 109.884 45.8863C110.083 45.8052 110.262 45.6818 110.409 45.5247C110.715 45.2193 110.927 44.679 111.069 43.9038H111.351L111.21 46.3234H105.98V45.9945H106.499C106.632 46.0086 106.765 45.9753 106.876 45.9006C106.913 45.8553 106.941 45.8027 106.958 45.746C106.974 45.6894 106.978 45.63 106.97 45.5717V40.6854C106.974 40.6416 106.967 40.5976 106.951 40.5568C106.934 40.516 106.909 40.4796 106.876 40.4505C106.801 40.3961 106.709 40.371 106.616 40.38H105.98V40.0511Z" fill="#F6F6F6"/>
<path d="M128.831 40.0511H133.801L133.943 42.1654H133.637C133.542 41.5076 133.354 41.0378 133.118 40.7794C132.997 40.6459 132.847 40.5408 132.68 40.4718C132.513 40.4027 132.333 40.3714 132.153 40.38H130.928C130.886 40.3749 130.843 40.3785 130.802 40.3906C130.762 40.4028 130.724 40.4232 130.692 40.4505C130.641 40.5178 130.616 40.6012 130.621 40.6854V42.9171H131.163C131.296 42.9219 131.429 42.8969 131.551 42.8441C131.673 42.7913 131.782 42.7119 131.87 42.6117C132.061 42.3358 132.159 42.0071 132.153 41.6721H132.435V44.5615H132.153C132.129 44.0917 132.035 43.7393 131.846 43.5514C131.759 43.4438 131.647 43.358 131.52 43.3009C131.393 43.2438 131.255 43.217 131.116 43.2225H130.621V45.7126C130.617 45.753 130.624 45.7937 130.641 45.8307C130.657 45.8678 130.683 45.8999 130.716 45.924C130.807 45.9801 130.915 46.0049 131.022 45.9945H131.988C133.048 45.9945 133.66 45.3368 133.801 43.9742H134.108L134.013 46.3234H128.831V45.9945H129.255C129.377 46.0042 129.499 45.9798 129.608 45.924C129.646 45.8925 129.676 45.8529 129.697 45.8082C129.717 45.7635 129.727 45.7148 129.726 45.6656V40.6854C129.725 40.5982 129.691 40.5145 129.632 40.4505C129.547 40.3992 129.448 40.3747 129.349 40.38H128.831V40.0511Z" fill="#F6F6F6"/>
<path d="M148.854 40.521L149.23 39.9807H149.537V42.2594H149.254C149.154 41.6842 148.883 41.1522 148.477 40.7324C148.324 40.5751 148.141 40.4503 147.938 40.3655C147.736 40.2807 147.518 40.2377 147.299 40.2391C147.13 40.2327 146.961 40.2606 146.803 40.3212C146.645 40.3817 146.501 40.4737 146.38 40.5914C146.268 40.6918 146.178 40.815 146.117 40.9527C146.056 41.0905 146.025 41.2396 146.027 41.3902C146.027 41.5765 146.067 41.7607 146.145 41.9305C146.251 42.0904 146.397 42.2199 146.569 42.3063C146.892 42.4448 147.233 42.5396 147.582 42.5882C148.086 42.6839 148.577 42.8417 149.042 43.0581C149.301 43.1965 149.52 43.3986 149.678 43.6454C149.822 43.8953 149.895 44.1794 149.89 44.4676C149.898 44.7286 149.852 44.9885 149.754 45.231C149.657 45.4735 149.511 45.6934 149.325 45.8771C149.127 46.0648 148.894 46.2113 148.64 46.3081C148.385 46.4049 148.113 46.4501 147.841 46.4409C147.216 46.4486 146.61 46.2223 146.145 45.8066L145.673 46.3939H145.367V43.9742H145.673C145.753 44.5746 146.035 45.13 146.474 45.5482C146.654 45.7352 146.87 45.8837 147.109 45.9847C147.348 46.0857 147.605 46.137 147.864 46.1355C148.053 46.144 148.242 46.1151 148.42 46.0506C148.598 45.9861 148.761 45.8872 148.901 45.7596C149.028 45.6482 149.129 45.5108 149.198 45.3568C149.268 45.2028 149.303 45.0357 149.301 44.8669C149.296 44.6752 149.239 44.4885 149.136 44.3266C149.017 44.1602 148.854 44.0301 148.665 43.9507C148.253 43.7876 147.828 43.6618 147.393 43.5749C146.893 43.4803 146.415 43.2973 145.98 43.0346C145.802 42.8852 145.662 42.6976 145.568 42.486C145.474 42.2744 145.429 42.0443 145.438 41.813C145.431 41.5634 145.476 41.315 145.568 41.0829C145.66 40.8507 145.798 40.6394 145.974 40.4618C146.15 40.2841 146.36 40.1437 146.592 40.0489C146.824 39.9541 147.072 39.9069 147.322 39.9102C147.581 39.9071 147.837 39.955 148.076 40.0511C148.349 40.1697 148.603 40.3281 148.83 40.521" fill="#F6F6F6"/>
<path d="M161.292 40.0511H166.38L166.498 42.4238H166.215C166.027 41.0378 165.508 40.333 164.707 40.333C164.585 40.3234 164.463 40.3478 164.354 40.4035C164.294 40.4856 164.261 40.584 164.26 40.6854V45.7126C164.262 45.7927 164.296 45.8686 164.354 45.924C164.447 45.9772 164.553 46.0017 164.66 45.9945H165.273V46.3234H162.375V45.9945H163.082C163.166 45.9963 163.248 45.9716 163.318 45.924C163.341 45.899 163.36 45.8695 163.372 45.8372C163.384 45.8049 163.39 45.7706 163.388 45.7361V40.6619C163.392 40.6146 163.386 40.567 163.37 40.5224C163.353 40.4778 163.327 40.4373 163.294 40.4035C163.194 40.3471 163.079 40.3225 162.964 40.333C162.759 40.3366 162.558 40.3924 162.381 40.4952C162.204 40.598 162.056 40.7444 161.951 40.9203C161.716 41.2257 161.551 41.7425 161.457 42.4238H161.15L161.292 40.0511Z" fill="#F6F6F6"/>
<path d="M183.011 45.9946C182.894 46.005 182.777 45.979 182.676 45.9201C182.574 45.8611 182.494 45.7722 182.445 45.6657L180.184 39.9103H179.901L177.781 45.2429C177.703 45.471 177.565 45.6739 177.381 45.8302C177.218 45.9506 177.018 46.0089 176.815 45.9946V46.3235H179.077V45.9946H178.865C178.667 46.0039 178.47 45.9549 178.299 45.8537C178.243 45.8135 178.196 45.7608 178.164 45.6997C178.131 45.6385 178.113 45.5706 178.111 45.5013C178.127 45.3321 178.166 45.166 178.229 45.008L178.512 44.2562H181.008L181.527 45.5718C181.544 45.6247 181.552 45.6804 181.55 45.7362C181.553 45.7759 181.543 45.8155 181.522 45.8493C181.501 45.8831 181.47 45.9093 181.432 45.9241C181.258 45.9825 181.074 46.0065 180.891 45.9946H180.702V46.3235H183.199V45.9946H183.011ZM178.653 43.9273L179.784 41.1318L180.891 43.9273H178.653Z" fill="#F6F6F6"/>
<path d="M193.635 40.0511H198.723L198.864 42.4238H198.558C198.369 41.0378 197.875 40.333 197.05 40.333C196.935 40.3192 196.819 40.344 196.72 40.4035C196.686 40.4417 196.66 40.4863 196.644 40.5348C196.628 40.5833 196.622 40.6345 196.626 40.6854V45.7126C196.622 45.753 196.629 45.7937 196.645 45.8307C196.662 45.8678 196.688 45.8999 196.72 45.924C196.802 45.9821 196.903 46.0073 197.003 45.9945H197.639V46.3234H194.718V45.9945H195.448C195.487 45.9978 195.525 45.9932 195.562 45.9811C195.598 45.969 195.632 45.9495 195.66 45.924C195.684 45.899 195.703 45.8695 195.715 45.8372C195.727 45.8049 195.732 45.7706 195.731 45.7361V40.6619C195.735 40.6146 195.729 40.567 195.712 40.5224C195.696 40.4778 195.67 40.4373 195.637 40.4035C195.544 40.3504 195.437 40.3258 195.331 40.333C195.121 40.3325 194.916 40.3864 194.734 40.4894C194.552 40.5924 194.401 40.741 194.294 40.9203C194.03 41.3836 193.862 41.8948 193.799 42.4238H193.493L193.635 40.0511Z" fill="#F6F6F6"/>
<path d="M209.7 40.0511H214.694L214.812 42.1654H214.529C214.411 41.5076 214.223 41.0378 213.987 40.7794C213.868 40.6432 213.719 40.5362 213.551 40.467C213.384 40.3977 213.203 40.368 213.022 40.38H211.797C211.713 40.3783 211.63 40.403 211.561 40.4505C211.51 40.5178 211.485 40.6012 211.49 40.6854V42.9171H212.032C212.165 42.9219 212.298 42.8969 212.42 42.8441C212.543 42.7913 212.651 42.7119 212.739 42.6117C212.951 42.3466 213.052 42.0099 213.022 41.6721H213.328V44.5615H213.022C213.046 44.2025 212.946 43.846 212.739 43.5514C212.644 43.4459 212.528 43.3619 212.398 43.3051C212.268 43.2484 212.127 43.2202 211.985 43.2225H211.49V45.7126C211.487 45.753 211.493 45.7937 211.51 45.8307C211.526 45.8678 211.552 45.8999 211.585 45.924C211.678 45.9772 211.784 46.0017 211.891 45.9945H212.857C213.917 45.9945 214.529 45.3368 214.694 43.9742H215L214.883 46.3234H209.7V45.9945H210.148C210.27 46.0042 210.392 45.9798 210.501 45.924C210.535 45.8903 210.56 45.8497 210.577 45.8051C210.593 45.7605 210.599 45.7129 210.595 45.6656V40.6854C210.599 40.6416 210.593 40.5976 210.576 40.5568C210.56 40.516 210.534 40.4796 210.501 40.4505C210.419 40.3924 210.318 40.3673 210.218 40.38H209.7V40.0511Z" fill="#F6F6F6"/>
<path d="M143.176 16.7005H139.69V6.10576C139.69 5.55763 139.878 5.18176 140.255 4.97817C140.609 4.74325 141.598 4.64928 143.153 4.64928C145.556 4.64928 147.134 4.81372 147.958 5.14261C148.804 5.50772 149.496 6.15577 149.914 6.97496C150.408 7.89113 150.667 9.11269 150.667 10.6631C150.667 12.9183 150.008 14.4923 148.665 15.385C147.322 16.2776 145.532 16.7005 143.176 16.7005ZM157.098 26.1441C157.004 27.6476 156.792 28.7282 156.439 29.339C156.085 29.9498 155.708 30.2317 155.308 30.2317C154.907 30.2317 154.531 29.9967 154.177 29.5034C153.824 29.0101 153.306 27.6711 152.905 25.9327C152.34 23.5131 151.845 21.8921 151.421 21.1169C150.997 20.3428 150.401 19.6758 149.678 19.1671C148.971 18.6738 147.652 18.1805 145.744 17.6636C148.359 17.3817 150.267 16.9589 151.492 16.3481C152.629 15.8106 153.598 14.9741 154.295 13.9285C154.943 12.8851 155.278 11.6788 155.261 10.4517C155.261 8.26699 154.436 6.50512 152.811 5.18959C151.186 3.87406 148.901 3.16931 145.932 3.16931H130.691V4.67278H133.589C134.201 4.67278 134.672 4.79023 134.979 5.02515C135.14 5.16832 135.267 5.34654 135.348 5.54609C135.43 5.74565 135.465 5.96122 135.45 6.17624V29.6914C135.455 29.8857 135.418 30.0789 135.34 30.2574C135.263 30.4359 135.148 30.5954 135.002 30.725C134.696 30.9834 134.225 31.1009 133.589 31.1009H130.691V32.6043H144.401V31.1009H141.575C140.891 31.1009 140.397 30.9834 140.067 30.725C139.737 30.4666 139.69 30.1847 139.69 29.6914V18.1335H142.093C143.388 18.1335 144.472 18.3449 145.391 18.8147C146.234 19.1874 146.942 19.8109 147.417 20.6001C147.864 21.3518 148.17 22.5969 148.359 24.3588C148.712 27.3892 149.042 29.292 149.301 29.9967C149.578 30.8672 150.134 31.6232 150.882 32.1492C151.631 32.6752 152.532 32.9423 153.447 32.9097C156.533 32.9097 158.182 30.6545 158.441 26.1441H157.098Z" fill="#F6F6F6"/>
<path d="M107.418 21.3284L112.718 8.22008L117.877 21.3284H107.418ZM127.841 31.1009C126.522 31.1009 125.651 30.5606 125.227 29.48L114.626 2.55859H113.307L103.272 27.5302C102.73 28.9162 102.118 29.8559 101.435 30.3727C100.751 30.8895 99.8799 31.1009 98.7256 31.1009V32.6044H109.42V31.1009H108.431C107.277 31.1009 106.381 30.8895 105.793 30.4197C105.204 29.9498 104.874 29.386 104.874 28.7518C104.874 28.1175 105.062 27.4362 105.416 26.4731L106.782 22.8789H118.442L120.892 29.1276C120.983 29.36 121.03 29.6067 121.034 29.8559C121.037 30.0344 120.99 30.2103 120.898 30.3637C120.807 30.5172 120.674 30.6423 120.515 30.7251C120.021 30.9835 119.149 31.1009 117.924 31.1009H116.982V32.6044H128.76V31.1009H127.841Z" fill="#F6F6F6"/>
</g>
<defs>
<clipPath id="clip0_402_1276">
<rect width="215" height="49" fill="white"/>
</clipPath>
</defs>
</svg>
