<svg width="535" height="122" viewBox="0 0 535 122" fill="none" xmlns="http://www.w3.org/2000/svg">
<path d="M17.7822 17.5332H38.4894L57.0166 85.9961L74.11 17.5332H95.2902V21.9374H90.1278C88.3071 21.9374 87.0738 22.2977 86.4425 23.0376C85.8112 23.7775 85.4964 25.0789 85.4964 26.9196V95.5346C85.4621 96.1136 85.5448 96.6936 85.7394 97.2402C85.9341 97.7868 86.2368 98.2888 86.6295 98.7164C87.3915 99.4557 88.694 99.816 90.544 99.816H95.2919V104.218H66.8825V99.816H72.1891C73.6956 99.816 74.814 99.4161 75.5444 98.6164C76.292 97.7676 76.6826 96.6636 76.6346 95.5346V21.9374L56.0846 104.218H53.2311L31.1323 22.2743V85.2966C31.1323 89.0349 31.4719 91.834 32.1511 93.6939C32.6842 95.362 33.6784 96.8461 35.0192 97.9754C36.266 98.9761 38.3317 99.5967 41.2139 99.816V104.218H17.7822V99.816C21.6117 99.4768 24.2213 98.3158 25.5977 96.3552C26.9603 94.4133 27.6442 90.9601 27.6493 85.9955V26.2194C27.6493 24.7186 27.3345 23.6383 26.6891 22.9575C26.0438 22.2767 24.8392 21.9374 23.0754 21.9374H17.784V17.5332H17.7822Z" fill="#F6F6F6"/>
<path d="M113.073 121.999H0V-0.00244141H113.073V121.999ZM6.12963 115.883H106.943V6.11613H6.12963V115.883Z" fill="#F6F6F6"/>
<path d="M149.474 7.89062H173.918L195.841 65.7366L216.005 7.89062H241.035V11.6339H234.938C232.828 11.6339 231.363 11.9264 230.601 12.5113C229.839 13.0962 229.487 14.266 229.487 15.8452V73.8081C229.47 74.3331 229.584 74.854 229.82 75.3238C230.055 75.7936 230.404 76.1974 230.835 76.4986C231.715 77.142 233.239 77.4345 235.466 77.4345H241.035V81.1778H207.506V77.4345H213.778C215.536 77.4345 216.884 77.142 217.705 76.4401C218.117 76.138 218.45 75.7407 218.674 75.2824C218.899 74.824 219.009 74.3181 218.995 73.8081V11.6339L194.727 81.1778H191.327L165.242 11.8679V65.1517C165.242 68.3101 165.653 70.7082 166.415 72.2874C167.177 73.7957 168.357 75.0543 169.815 75.9137C171.28 76.7326 173.742 77.259 177.142 77.4345V81.1778H149.474V77.4345C153.988 77.142 157.036 76.2062 158.677 74.51C160.319 72.8138 161.139 69.9478 161.139 65.7366V15.2018C161.176 14.6836 161.089 14.1641 160.885 13.6862C160.682 13.2082 160.367 12.7854 159.967 12.4528C159.205 11.8679 157.798 11.6339 155.688 11.6339H149.474V7.89062Z" fill="#F6F6F6"/>
<path d="M400.181 7.89062H433.769V11.6339H426.617C425.093 11.6339 423.921 11.9849 423.1 12.8037C422.677 13.1842 422.346 13.6558 422.133 14.1828C421.92 14.7097 421.83 15.2782 421.869 15.8452V49.8275L449.478 20.3489C451.061 18.6527 451.881 17.015 451.881 15.4942C451.882 14.923 451.731 14.3619 451.442 13.8685C451.154 13.375 450.739 12.9672 450.24 12.6868C449.126 11.9849 447.368 11.6339 444.847 11.6339H442.854V7.89062H472.984V11.6339H470.639C468.327 11.7135 466.062 12.3134 464.015 13.3886C461.489 14.6316 459.206 16.3153 457.274 18.3602L440.275 36.024L464.66 71.878C466.008 73.9251 467.415 75.3873 468.88 76.2062C470.463 77.0571 472.241 77.4805 474.039 77.4345H476.735V81.1778H443.616V77.4345H447.368C450.123 77.4345 451.94 77.259 452.819 76.7911C453.699 76.3232 454.226 75.7383 454.226 75.0364C454.204 74.3711 454.001 73.7243 453.64 73.1647L433.358 43.3937L421.869 55.7349V73.8081C421.827 74.2619 421.89 74.7192 422.052 75.1451C422.215 75.5709 422.473 75.9539 422.807 76.2647C423.912 77.0656 425.252 77.4771 426.617 77.4345H433.769V81.1778H400.181V77.4345H406.629C408.329 77.4345 409.501 77.142 410.322 76.4401C410.705 76.1196 411.01 75.7158 411.213 75.2596C411.417 74.8034 411.513 74.307 411.494 73.8081V15.2603C411.522 14.7337 411.413 14.2088 411.177 13.7371C410.94 13.2654 410.585 12.8631 410.146 12.5698C409.267 11.9264 407.743 11.6339 405.632 11.6339H400.181V7.89062Z" fill="#F6F6F6"/>
<path d="M522.164 13.4474L526.677 7.01353H530.253L530.604 33.7432H527.322C525.29 25.5547 522.242 19.5887 518.178 15.8454C516.363 14.0335 514.205 12.599 511.831 11.6252C509.456 10.6513 506.911 10.1573 504.344 10.172C499.948 10.172 496.372 11.4587 493.558 14.0907C492.226 15.2942 491.166 16.7668 490.449 18.4105C489.731 20.0543 489.372 21.8317 489.396 23.6245C489.348 25.7964 489.896 27.94 490.979 29.8244C492.118 31.6734 493.766 33.1558 495.727 34.0941C497.837 35.2054 501.823 36.4337 507.626 37.6619C515.833 39.4166 521.577 41.2298 524.86 43.043C527.896 44.593 530.428 46.9718 532.161 49.9023C533.894 52.8329 534.757 56.1944 534.649 59.5954C534.649 66.2047 532.422 71.7027 527.967 76.0309C523.512 80.3592 517.767 82.5817 510.733 82.5817C503.452 82.7018 496.395 80.069 490.979 75.2121L485.352 82.0553H481.776V53.688H485.352C486.759 61.5256 489.865 67.667 494.672 72.2291C499.479 76.7913 504.93 79.0139 511.026 79.0139C515.891 79.0139 519.936 77.5517 523.043 74.6857C524.517 73.3451 525.692 71.7094 526.49 69.8852C527.288 68.061 527.691 66.0894 527.674 64.0991C527.72 61.9221 527.107 59.7817 525.915 57.9577C524.526 55.996 522.618 54.4572 520.405 53.5126C517.884 52.2843 512.961 50.822 505.575 49.1259C498.189 47.4297 491.917 45.0316 488.986 42.692C484.824 39.2996 482.773 34.5035 482.773 28.3621C482.773 22.2208 484.824 16.6058 488.927 12.5115C493.031 8.41728 498.306 6.37015 504.754 6.37015C507.764 6.34212 510.75 6.89834 513.547 8.00785C516.717 9.30148 519.634 11.1428 522.164 13.4474Z" fill="#F6F6F6"/>
<path d="M163.484 111.885C163.524 112.466 163.423 113.047 163.191 113.581C162.956 113.932 162.78 114.049 162.546 114.049C162.429 114.036 162.316 113.998 162.215 113.937C162.113 113.877 162.027 113.795 161.96 113.698C161.628 113.1 161.409 112.445 161.315 111.768C161.152 110.898 160.876 110.052 160.494 109.253C160.282 108.842 159.982 108.483 159.615 108.2C158.943 107.852 158.236 107.577 157.505 107.381C158.549 107.334 159.579 107.116 160.553 106.738C161.157 106.434 161.665 105.968 162.018 105.393C162.375 104.856 162.56 104.223 162.546 103.579C162.569 103.043 162.464 102.509 162.24 102.021C162.016 101.533 161.679 101.105 161.256 100.772C160.201 100.017 158.919 99.6457 157.622 99.7191H149.533V100.538H151.057C151.323 100.52 151.588 100.581 151.819 100.713C151.967 100.873 152.051 101.081 152.053 101.298V113.757C152.051 113.974 151.967 114.182 151.819 114.341C151.588 114.474 151.323 114.535 151.057 114.517H149.533V115.336H156.802V114.517H155.277C155.012 114.535 154.746 114.474 154.515 114.341C154.429 114.272 154.363 114.182 154.322 114.08C154.28 113.977 154.267 113.866 154.281 113.757V107.674H155.571C156.176 107.654 156.778 107.774 157.329 108.025C157.769 108.221 158.137 108.548 158.384 108.96C158.683 109.585 158.861 110.259 158.912 110.949C158.99 111.954 159.147 112.951 159.381 113.932C159.533 114.41 159.843 114.822 160.26 115.102C160.642 115.359 161.089 115.501 161.55 115.511C163.191 115.511 164.07 114.283 164.246 111.885H163.484ZM156.157 106.913H154.281V101.298C154.274 101.175 154.297 101.053 154.348 100.941C154.399 100.828 154.477 100.73 154.574 100.655C155.085 100.495 155.623 100.436 156.157 100.479C157.007 100.435 157.86 100.533 158.677 100.772C159.121 100.99 159.489 101.337 159.732 101.766C159.994 102.375 160.114 103.035 160.084 103.696C160.084 104.866 159.732 105.743 159.029 106.211C158.162 106.723 157.163 106.968 156.157 106.913Z" fill="#F6F6F6"/>
<path d="M188.162 99.7192H200.53L200.823 104.983H200.12C199.827 103.346 199.416 102.176 198.772 101.532C198.481 101.201 198.119 100.94 197.713 100.768C197.307 100.596 196.868 100.517 196.427 100.538H193.32C193.225 100.53 193.129 100.541 193.038 100.572C192.948 100.602 192.864 100.65 192.793 100.714C192.645 100.873 192.561 101.081 192.558 101.298V106.855H193.906C194.239 106.881 194.574 106.825 194.88 106.692C195.187 106.56 195.456 106.355 195.665 106.095C196.189 105.43 196.459 104.6 196.427 103.755H197.13V110.949H196.427C196.368 109.779 196.134 108.902 195.665 108.434C195.435 108.165 195.146 107.951 194.821 107.81C194.496 107.668 194.144 107.601 193.789 107.615H192.558V113.815C192.564 114.015 192.648 114.204 192.793 114.342C193.024 114.474 193.289 114.535 193.555 114.517H196.017C198.596 114.517 200.12 112.879 200.53 109.487H201.292L201.058 115.336H188.162V114.517H189.217C189.521 114.541 189.825 114.48 190.096 114.342C190.18 114.258 190.244 114.157 190.284 114.045C190.325 113.934 190.34 113.816 190.331 113.698V101.298C190.34 101.189 190.324 101.08 190.283 100.978C190.242 100.877 190.178 100.786 190.096 100.714C189.91 100.578 189.681 100.516 189.451 100.538H188.162V99.7192Z" fill="#F6F6F6"/>
<path d="M240.038 114.517C239.748 114.543 239.456 114.478 239.204 114.331C238.952 114.185 238.752 113.963 238.631 113.698L233.063 99.3682H232.359L227.025 112.645C226.831 113.213 226.487 113.718 226.029 114.107C225.624 114.407 225.125 114.553 224.622 114.517V115.336H230.308V114.517H229.78C229.285 114.56 228.79 114.436 228.373 114.166C228.218 114.077 228.088 113.949 227.996 113.796C227.903 113.642 227.852 113.468 227.846 113.289C227.884 112.867 227.983 112.454 228.139 112.06L228.901 110.189H235.056L236.345 113.464C236.404 113.594 236.444 113.732 236.463 113.874C236.456 113.97 236.426 114.063 236.375 114.144C236.324 114.226 236.253 114.294 236.169 114.341C235.714 114.481 235.238 114.54 234.763 114.517H234.294V115.336H240.507V114.517H240.038ZM229.253 109.37L232.008 102.41L234.763 109.37H229.253Z" fill="#F6F6F6"/>
<path d="M263.719 99.7192H270.988V100.538H269.23C269.125 100.525 269.019 100.534 268.918 100.565C268.817 100.595 268.724 100.645 268.643 100.714C268.559 100.809 268.494 100.92 268.454 101.04C268.413 101.161 268.398 101.289 268.409 101.415V113.698C268.402 113.821 268.425 113.944 268.476 114.056C268.527 114.168 268.605 114.266 268.702 114.342C269.009 114.5 269.356 114.561 269.698 114.517H271.867C272.402 114.542 272.937 114.45 273.433 114.248C273.928 114.046 274.374 113.738 274.74 113.347C275.502 112.587 276.029 111.242 276.381 109.311H277.084L276.733 115.336H263.719V114.517H265.009C265.34 114.552 265.672 114.469 265.947 114.283C266.041 114.17 266.11 114.039 266.151 113.898C266.191 113.757 266.202 113.609 266.181 113.464V101.298C266.191 101.189 266.174 101.08 266.134 100.978C266.093 100.877 266.029 100.786 265.947 100.714C265.761 100.578 265.531 100.516 265.302 100.538H263.719V99.7192Z" fill="#F6F6F6"/>
<path d="M320.578 99.7192H332.947L333.298 104.983H332.536C332.302 103.346 331.833 102.176 331.247 101.532C330.944 101.2 330.572 100.938 330.157 100.767C329.741 100.595 329.293 100.517 328.843 100.538H325.795C325.691 100.525 325.585 100.534 325.484 100.565C325.383 100.595 325.289 100.645 325.209 100.714C325.082 100.881 325.02 101.089 325.033 101.298V106.855H326.381C326.713 106.867 327.043 106.805 327.347 106.673C327.651 106.542 327.922 106.344 328.14 106.095C328.615 105.408 328.861 104.589 328.843 103.755H329.547V110.949H328.843C328.785 109.779 328.55 108.902 328.081 108.434C327.863 108.166 327.585 107.953 327.27 107.811C326.954 107.668 326.61 107.602 326.264 107.615H325.033V113.815C325.024 113.916 325.04 114.017 325.081 114.109C325.122 114.201 325.186 114.281 325.268 114.342C325.496 114.481 325.763 114.543 326.03 114.517H328.433C331.071 114.517 332.595 112.879 332.947 109.487H333.709L333.474 115.336H320.578V114.517H321.633C321.937 114.541 322.242 114.48 322.513 114.342C322.607 114.263 322.682 114.164 322.732 114.053C322.783 113.942 322.808 113.82 322.806 113.698V101.298C322.803 101.081 322.719 100.873 322.571 100.714C322.36 100.586 322.115 100.525 321.868 100.538H320.578V99.7192Z" fill="#F6F6F6"/>
<path d="M370.403 100.889L371.341 99.5435H372.103V105.217H371.4C371.151 103.785 370.477 102.46 369.465 101.415C369.085 101.024 368.63 100.713 368.126 100.502C367.622 100.291 367.081 100.184 366.534 100.187C366.114 100.171 365.694 100.24 365.301 100.391C364.908 100.542 364.55 100.771 364.248 101.064C363.968 101.314 363.745 101.621 363.593 101.964C363.442 102.307 363.365 102.678 363.369 103.053C363.37 103.517 363.47 103.976 363.662 104.398C363.926 104.796 364.29 105.119 364.717 105.334C365.522 105.679 366.37 105.915 367.238 106.036C368.493 106.274 369.714 106.667 370.872 107.206C371.516 107.55 372.061 108.054 372.455 108.668C372.812 109.29 372.995 109.998 372.982 110.715C373.002 111.365 372.887 112.012 372.645 112.616C372.403 113.219 372.039 113.767 371.576 114.224C371.085 114.692 370.505 115.057 369.871 115.298C369.237 115.539 368.561 115.651 367.883 115.628C366.327 115.647 364.821 115.084 363.662 114.049L362.49 115.511H361.728V109.487H362.49C362.687 110.982 363.39 112.364 364.483 113.405C364.929 113.871 365.466 114.241 366.061 114.492C366.656 114.744 367.295 114.872 367.941 114.868C368.412 114.889 368.882 114.817 369.324 114.657C369.767 114.496 370.173 114.25 370.52 113.932C370.837 113.655 371.09 113.313 371.262 112.929C371.433 112.545 371.521 112.129 371.517 111.709C371.505 111.232 371.363 110.767 371.107 110.364C370.81 109.95 370.404 109.626 369.934 109.428C368.909 109.022 367.85 108.709 366.769 108.492C365.525 108.257 364.334 107.801 363.252 107.147C362.811 106.775 362.46 106.308 362.227 105.781C361.993 105.254 361.883 104.681 361.904 104.106C361.888 103.484 361.998 102.866 362.227 102.288C362.456 101.71 362.8 101.184 363.238 100.741C363.676 100.299 364.199 99.9494 364.775 99.7134C365.352 99.4775 365.97 99.36 366.593 99.3681C367.235 99.3603 367.873 99.4796 368.469 99.719C369.149 100.014 369.781 100.409 370.345 100.889" fill="#F6F6F6"/>
<path d="M401.353 99.7192H414.014L414.308 105.627H413.604C413.135 102.176 411.846 100.421 409.853 100.421C409.549 100.397 409.244 100.458 408.973 100.597C408.825 100.801 408.743 101.046 408.739 101.298V113.815C408.745 114.015 408.829 114.204 408.973 114.342C409.204 114.474 409.47 114.535 409.735 114.517H411.259V115.336H404.05V114.517H405.808C406.017 114.521 406.222 114.46 406.394 114.342C406.453 114.279 406.499 114.206 406.53 114.125C406.56 114.045 406.574 113.959 406.57 113.874V101.24C406.58 101.122 406.564 101.004 406.523 100.893C406.483 100.782 406.419 100.681 406.336 100.597C406.086 100.456 405.8 100.395 405.515 100.421C405.005 100.43 404.505 100.569 404.064 100.825C403.623 101.081 403.255 101.445 402.994 101.883C402.408 102.644 401.998 103.93 401.763 105.627H401.001L401.353 99.7192Z" fill="#F6F6F6"/>
<path d="M455.398 114.517C455.108 114.543 454.816 114.478 454.564 114.331C454.312 114.185 454.112 113.963 453.991 113.698L448.364 99.3682H447.661L442.385 112.645C442.191 113.213 441.847 113.718 441.389 114.107C440.984 114.407 440.485 114.553 439.982 114.517V115.336H445.609V114.517H445.082C444.588 114.54 444.099 114.418 443.675 114.166C443.534 114.066 443.418 113.935 443.337 113.783C443.255 113.63 443.21 113.461 443.206 113.289C443.245 112.867 443.343 112.454 443.499 112.06L444.202 110.189H450.416L451.705 113.464C451.749 113.596 451.769 113.735 451.764 113.874C451.771 113.972 451.747 114.071 451.694 114.155C451.641 114.239 451.563 114.305 451.471 114.341C451.037 114.487 450.579 114.546 450.123 114.517H449.654V115.336H455.867V114.517H455.398ZM444.554 109.37L447.368 102.41L450.123 109.37H444.554Z" fill="#F6F6F6"/>
<path d="M481.835 99.7192H494.496L494.848 105.627H494.086C493.617 102.176 492.386 100.421 490.334 100.421C490.049 100.387 489.76 100.448 489.513 100.597C489.429 100.692 489.364 100.803 489.324 100.923C489.283 101.044 489.268 101.172 489.279 101.298V113.815C489.269 113.916 489.286 114.017 489.327 114.109C489.368 114.201 489.432 114.281 489.513 114.342C489.718 114.486 489.969 114.549 490.217 114.517H491.8V115.336H484.531V114.517H486.348C486.443 114.525 486.539 114.514 486.63 114.484C486.721 114.453 486.804 114.405 486.876 114.342C486.935 114.279 486.981 114.206 487.011 114.125C487.041 114.045 487.055 113.959 487.052 113.874V101.24C487.061 101.122 487.045 101.004 487.005 100.893C486.964 100.782 486.9 100.681 486.817 100.597C486.586 100.464 486.321 100.403 486.055 100.421C485.535 100.42 485.023 100.554 484.571 100.811C484.119 101.067 483.741 101.437 483.476 101.883C482.819 103.037 482.401 104.309 482.245 105.627H481.483L481.835 99.7192Z" fill="#F6F6F6"/>
<path d="M521.812 99.7192H534.239L534.532 104.983H533.829C533.535 103.346 533.066 102.176 532.48 101.532C532.183 101.193 531.812 100.927 531.395 100.755C530.978 100.582 530.527 100.508 530.077 100.538H527.029C526.82 100.534 526.615 100.595 526.443 100.714C526.316 100.881 526.253 101.089 526.267 101.298V106.855H527.615C527.946 106.867 528.276 106.805 528.581 106.673C528.885 106.542 529.156 106.344 529.374 106.095C529.902 105.434 530.154 104.596 530.077 103.755H530.839V110.949H530.077C530.138 110.055 529.889 109.168 529.374 108.434C529.138 108.171 528.849 107.962 528.525 107.821C528.201 107.68 527.851 107.61 527.498 107.615H526.267V113.815C526.257 113.916 526.274 114.017 526.315 114.109C526.356 114.201 526.42 114.281 526.501 114.342C526.732 114.474 526.998 114.535 527.263 114.517H529.667C532.304 114.517 533.829 112.879 534.239 109.487H535.001L534.708 115.336H521.812V114.517H522.926C523.229 114.541 523.534 114.48 523.805 114.342C523.888 114.258 523.952 114.157 523.993 114.045C524.033 113.934 524.049 113.816 524.039 113.698V101.298C524.049 101.189 524.032 101.08 523.992 100.978C523.951 100.877 523.887 100.786 523.805 100.714C523.601 100.569 523.35 100.506 523.102 100.538H521.812V99.7192Z" fill="#F6F6F6"/>
<path d="M356.276 41.5805H347.601V15.2018C347.601 13.837 348.07 12.9012 349.008 12.3943C349.887 11.8094 352.349 11.5755 356.218 11.5755C362.196 11.5755 366.124 11.9849 368.175 12.8037C370.28 13.7128 372.001 15.3263 373.041 17.3659C374.272 19.647 374.916 22.6884 374.916 26.5487C374.916 32.1637 373.275 36.0825 369.934 38.3051C366.593 40.5277 362.138 41.5805 356.276 41.5805ZM390.919 65.0932C390.685 68.8365 390.157 71.5271 389.278 73.0478C388.398 74.5685 387.461 75.2704 386.464 75.2704C385.468 75.2704 384.53 74.6855 383.65 73.4572C382.771 72.2289 381.482 68.895 380.485 64.5668C379.078 58.5424 377.847 54.5066 376.792 52.5765C375.737 50.6491 374.253 48.9885 372.455 47.7219C370.696 46.4936 367.413 45.2653 362.665 43.9786C369.172 43.2767 373.92 42.2239 376.968 40.7032C379.799 39.3649 382.21 37.2821 383.944 34.6788C385.555 32.0809 386.389 29.0774 386.347 26.0223C386.347 20.5828 384.295 16.1961 380.251 12.9207C376.206 9.6453 370.52 7.89062 363.134 7.89062H325.209V11.6339H332.419C333.943 11.6339 335.115 11.9264 335.877 12.5113C336.279 12.8678 336.594 13.3115 336.797 13.8083C337.001 14.3052 337.087 14.8419 337.05 15.3773V73.9251C337.062 74.409 336.969 74.8899 336.777 75.3344C336.585 75.7788 336.298 76.1761 335.936 76.4986C335.174 77.142 334.002 77.4345 332.419 77.4345H325.209V81.1778H359.324V77.4345H352.29C350.59 77.4345 349.359 77.142 348.539 76.4986C347.718 75.8553 347.601 75.1534 347.601 73.9251V45.1483H353.58C356.804 45.1483 359.5 45.6748 361.786 46.8445C363.886 47.7723 365.646 49.3249 366.827 51.2897C367.941 53.1614 368.703 56.2613 369.172 60.648C370.051 68.1932 370.872 72.9308 371.517 74.6855C372.207 76.8527 373.589 78.7349 375.452 80.0446C377.314 81.3542 379.556 82.0193 381.833 81.9382C389.512 81.9382 393.615 76.3232 394.26 65.0932H390.919Z" fill="#F6F6F6"/>
<path d="M267.295 53.1031L280.484 20.4661L293.321 53.1031H267.295ZM318.117 77.4347C314.834 77.4347 312.665 76.0894 311.61 73.3989L285.232 6.37012H281.95L256.979 68.5443C255.63 71.9952 254.106 74.3347 252.407 75.6215C250.707 76.9083 248.538 77.4347 245.666 77.4347V81.178H272.278V77.4347H269.816C266.944 77.4347 264.716 76.9083 263.251 75.7385C261.785 74.5687 260.965 73.165 260.965 71.5857C260.965 70.0065 261.434 68.3103 262.313 65.9123L265.713 56.9634H294.728L300.824 72.5216C301.049 73.1002 301.168 73.7143 301.176 74.3347C301.183 74.7793 301.067 75.2171 300.839 75.5993C300.611 75.9814 300.281 76.2929 299.887 76.4988C298.656 77.1422 296.487 77.4347 293.439 77.4347H291.094V81.178H320.403V77.4347H318.117Z" fill="#F6F6F6"/>
</svg>
